<svg width="1920" height="656" viewBox="0 0 1920 656" fill="none" xmlns="http://www.w3.org/2000/svg">
<g clip-path="url(#clip0_2103_4535)">
<path opacity="0.05" d="M1926.93 -13.502H-6.93333C-14.1499 -13.502 -20 -7.65181 -20 -0.435287V656.165C-20 663.381 -14.1499 669.231 -6.93333 669.231H1926.93C1934.15 669.231 1940 663.381 1940 656.165V-0.435287C1940 -7.65181 1934.15 -13.502 1926.93 -13.502Z" fill="#EB662B"/>
<mask id="mask0_2103_4535" style="mask-type:alpha" maskUnits="userSpaceOnUse" x="-20" y="-14" width="1960" height="684">
<path d="M1926.93 -13.502H-6.93333C-14.1499 -13.502 -20 -7.65181 -20 -0.435287V656.165C-20 663.381 -14.1499 669.231 -6.93333 669.231H1926.93C1934.15 669.231 1940 663.381 1940 656.165V-0.435287C1940 -7.65181 1934.15 -13.502 1926.93 -13.502Z" fill="#F5F5F5"/>
</mask>
<g mask="url(#mask0_2103_4535)">
<path d="M-20 0.929113C-20 0.929113 30.469 7.80904 76.7901 8.28902C123.802 8.769 163.901 8.28902 221.284 5.88911C299.407 2.68908 450.123 -10.2708 530.321 -3.23088C610.519 3.80911 613.975 4.12903 654.766 8.60905C700.395 13.729 793.037 23.9689 907.802 23.4889C1030.17 23.0089 1252.09 -3.07089 1343.35 -1.79093C1353.03 -1.63087 1388.99 -0.510942 1415.95 1.40909C1442.23 3.32913 1480.94 7.48901 1533.49 8.92907C1555.6 9.56901 1590.87 10.689 1631.66 10.369C1642.03 10.2091 1675.21 9.72908 1714.62 7.80904C1754.03 5.88911 1790.67 2.84904 1823.85 1.88908C1895.06 0.129106 1940 2.68908 1940 2.68908V-14.5908H-20V0.929113ZM136.938 3.48909C141.778 1.88908 150.765 2.84904 166.667 2.84904C182.568 2.84904 208.84 0.929113 206.765 1.08907C204.691 1.24914 185.333 3.48909 165.284 4.12903C144.543 4.92904 132.791 5.0891 136.938 3.48909ZM264.148 -0.830858C264.148 -0.830858 280.74 -1.15088 302.864 -2.27091C324.987 -3.55088 374.074 -6.75086 407.259 -7.87086C463.95 -9.63084 516.493 -7.87086 511.654 -7.71086C506.124 -7.55086 445.284 -8.67086 389.975 -5.95087C367.161 -4.83087 325.679 -2.43087 304.247 -1.63086C281.432 -0.6709 264.148 -0.830858 264.148 -0.830858ZM659.605 -0.990925C647.852 -2.11085 751.555 6.52905 787.506 8.769C802.025 9.72908 830.37 11.3291 856.642 11.969C883.605 12.6091 918.173 12.6091 917.481 12.769C917.481 13.0891 877.383 14.049 840.049 12.769C802.717 11.489 804.098 11.0091 787.506 10.2091C761.234 8.92907 671.358 0.129107 659.605 -0.990925ZM563.506 -3.55088C562.123 -3.55088 569.037 -4.19088 596.691 -1.79093C624.346 0.609089 643.012 3.80911 644.395 4.12903C645.778 4.2891 620.198 1.24914 598.766 -0.6709C578.024 -2.59094 564.198 -3.55088 563.506 -3.55088ZM-16.5433 -4.99087C-15.8519 -4.83087 -3.40751 -3.23088 16.6418 -0.990925C36.6913 1.24914 64.3457 3.48909 62.9629 3.32913C61.5803 3.32913 38.7655 2.36906 11.8025 -0.6709C-15.1605 -3.71088 -17.2346 -5.15087 -16.5433 -4.99087ZM1723.61 3.96907C1722.91 3.64905 1736.74 3.64905 1754.71 2.04903C1772.69 0.449131 1792.05 -0.510942 1808.65 -1.15088C1836.29 -2.43087 1889.53 -0.990925 1886.76 -0.830858C1884.7 -0.6709 1830.08 -1.31084 1800.35 0.289064C1785.14 1.08907 1783.76 1.08907 1760.94 2.84904C1738.12 4.60912 1724.29 4.44905 1723.61 3.96907ZM1435.31 0.129107C1432.55 -0.0308514 1411.12 -2.43087 1377.23 -4.03087C1343.35 -5.79087 1315.71 -4.83087 1315.71 -5.31087C1315.71 -5.79087 1322.62 -6.75086 1358.57 -5.79087C1394.52 -4.83087 1438.08 0.289064 1435.31 0.129107ZM1444.99 -3.87088C1443.61 -3.71088 1421.48 -5.95087 1405.58 -6.59086C1389.68 -7.07087 1392.44 -7.39086 1392.44 -7.55086C1392.44 -7.71086 1400.05 -7.87086 1411.12 -7.23086C1422.86 -6.43086 1446.37 -4.03087 1444.99 -3.87088ZM1292.88 -7.55086C1292.2 -7.23086 1268.69 -6.27087 1254.17 -4.67088C1239.66 -3.07089 1241.73 -3.71088 1241.04 -3.87088C1240.35 -4.03087 1246.56 -5.15087 1257.63 -5.95087C1268.69 -6.91087 1293.58 -7.87086 1292.88 -7.55086ZM1487.85 3.16907C1488.55 3.64905 1485.78 3.96907 1474.72 2.84904C1463.65 1.72912 1456.74 0.769047 1459.51 0.929113C1462.27 1.08907 1465.72 1.56905 1476.79 2.2091C1488.55 2.84904 1487.16 2.68909 1487.85 3.16907ZM1701.48 5.24906C1702.86 5.24906 1686.96 6.52905 1678.67 6.68901C1670.37 6.84908 1664.84 6.84908 1664.84 6.36909C1664.84 5.88911 1665.53 5.56909 1675.9 5.72904C1686.96 5.88911 1700.1 5.24906 1701.48 5.24906ZM887.753 19.169C888.445 19.329 904.346 18.689 939.605 18.689C974.173 18.689 1033.63 14.849 1058.52 13.0891C1083.4 11.329 989.383 19.3289 944.444 19.649C899.506 19.969 887.062 19.009 887.753 19.169Z" fill="white"/>
<path d="M76.0986 14.2095C76.79 14.0496 107.901 14.6895 125.876 14.2095C176.345 13.0895 243.408 9.08959 240.642 9.56957C237.876 10.0496 145.926 14.5296 123.112 14.8496C89.2341 15.4895 75.4073 14.2095 76.0986 14.2095Z" fill="white"/>
<path d="M367.851 1.08887C369.234 0.928913 398.963 -0.511143 433.531 -0.831167C468.099 -1.15108 521.333 0.128906 518.568 -0.0311606C516.493 -0.191118 477.778 -2.91111 426.618 -1.95109C375.457 -0.991126 366.47 1.24883 367.851 1.08887Z" fill="white"/>
<path d="M526.173 6.84881C526.864 6.68874 512.346 5.24879 504.05 5.08884C495.753 4.92877 490.222 5.08884 490.222 5.56882C490.222 6.0488 490.913 6.36883 501.284 6.20876C513.037 6.0488 525.481 7.00877 526.173 6.84881Z" fill="white"/>
<path d="M550.371 2.36906C550.371 2.20899 580.79 4.28899 593.926 5.889C607.062 7.32895 636.79 10.849 636.099 10.849C635.408 11.009 607.062 8.28902 592.543 6.68901C578.024 5.08899 550.371 2.52902 550.371 2.36906Z" fill="white"/>
<path d="M871.852 28.129C872.543 27.969 903.654 28.609 921.63 28.129C972.099 27.0089 1039.16 23.009 1036.4 23.489C1033.63 23.969 941.679 28.449 918.864 28.769C884.988 29.409 871.161 28.2889 871.852 28.129Z" fill="white"/>
<path d="M1650.32 16.289C1650.32 16.289 1642.03 15.809 1630.28 16.129C1618.52 16.449 1590.17 17.569 1573.58 17.249C1544.55 16.609 1522.42 12.929 1525.19 13.0891C1527.95 13.0891 1554.91 16.609 1584.64 16.129C1597.09 15.9691 1619.9 15.329 1630.96 15.489C1642.03 15.649 1650.32 16.289 1650.32 16.289Z" fill="white"/>
<path d="M1418.03 5.56901C1416.65 5.72897 1404.2 4.28902 1388.29 3.80893C1372.39 3.48901 1373.78 3.32895 1373.78 3.00903C1373.78 2.84896 1386.22 2.36898 1397.29 3.00903C1408.35 3.80893 1419.4 5.40894 1418.03 5.56901Z" fill="white"/>
<path d="M1832.15 6.52937C1832.15 6.36941 1802.42 6.52937 1785.82 7.32938C1769.23 8.12938 1751.26 10.3693 1751.26 10.5294C1751.26 10.6894 1769.93 9.24941 1786.52 8.28934C1802.42 7.32938 1831.46 6.68944 1832.15 6.52937Z" fill="white"/>
</g>
</g>
<defs>
<clipPath id="clip0_2103_4535">
<rect width="1960" height="682.733" fill="white" transform="translate(-20 -13.502)"/>
</clipPath>
</defs>
</svg>
